# xmcd
#
# Track frame offsets: 
#        150
#        14468
#        31012
#        50594
#        61823
#        76366
#        96507
#        107574
#        123956
#        135864
#        151155
#        164872
#        173504
#
# Disc length: 2469 seconds
#
# Revision: 0
# Processed by: cddbd v1.5.2PL0 Copyright (c) Steve Scherf et al.
# Submitted via: ExactAudioCopy v1.0b3
#
DISCID=9a09a30d
DTITLE=Pavel Bobek - The Stranger
DYEAR=1982
DGENRE=Country
TTITLE0=Stranger
TTITLE1=Tenterfield Saddler
TTITLE2=Covard of the County
TTITLE3=Daydream
TTITLE4=On the Amazon
TTITLE5=Walk on the Wild Side
TTITLE6=Cow Cow Boogie
TTITLE7=You Decorated My Love
TTITLE8=Birthday Song
TTITLE9=I Keep Singing
TTITLE10=Let's Take a Slow Walk Down This Street
TTITLE11=Wonderful Baby
TTITLE12=We're Going Home
EXTD=
EXTT0=
EXTT1=
EXTT2=
EXTT3=
EXTT4=
EXTT5=
EXTT6=
EXTT7=
EXTT8=
EXTT9=
EXTT10=
EXTT11=
EXTT12=
PLAYORDER=
